<?xml version="1.0" standalone="no"?>
<!DOCTYPE svg PUBLIC "-//W3C//DTD SVG 20010904//EN"
 "http://www.w3.org/TR/2001/REC-SVG-20010904/DTD/svg10.dtd">
<svg version="1.0" xmlns="http://www.w3.org/2000/svg"
 width="513.000000pt" height="513.000000pt" viewBox="0 0 513.000000 513.000000"
 preserveAspectRatio="xMidYMid meet">
<metadata>
Created by potrace 1.11, written by Peter Selinger 2001-2013
</metadata>
<g transform="translate(0.000000,513.000000) scale(0.100000,-0.100000)"
fill="#000000" stroke="none">
<path d="M2236 5104 c-1033 -133 -1894 -894 -2151 -1905 -66 -257 -92 -618
-66 -885 77 -766 488 -1448 1129 -1874 327 -218 655 -343 1062 -407 155 -24
555 -24 713 0 569 87 1061 333 1455 727 753 753 960 1893 520 2866 -163 360
-416 686 -728 935 -379 304 -840 495 -1325 549 -127 14 -479 10 -609 -6z
m-671 -1015 c218 -68 429 -294 623 -667 l69 -133 159 183 c351 404 475 500
649 502 96 1 161 -32 248 -123 80 -85 101 -135 95 -226 -3 -55 -8 -70 -31 -93
-23 -22 -36 -27 -74 -26 -39 1 -51 6 -76 34 -26 29 -28 37 -22 77 6 38 3 49
-20 79 -61 79 -138 95 -217 45 -77 -49 -190 -164 -396 -401 -108 -124 -201
-232 -208 -240 -11 -13 -2 -40 55 -165 108 -240 220 -451 309 -584 99 -149
190 -264 202 -256 5 3 60 79 121 168 62 89 143 199 181 244 147 176 335 308
517 363 95 29 211 25 286 -11 166 -78 265 -297 266 -589 1 -309 -108 -564
-326 -768 -124 -116 -298 -186 -419 -168 -110 17 -334 162 -523 340 l-91 86
-99 -122 c-54 -67 -156 -182 -226 -255 -192 -198 -325 -293 -475 -340 -213
-66 -381 18 -497 248 -54 110 -58 148 -16 190 22 22 39 29 68 29 54 0 79 -21
112 -95 66 -145 136 -204 225 -191 161 24 392 220 673 569 l96 119 -19 23
c-100 126 -206 272 -260 357 -66 107 -198 361 -274 530 l-44 96 -120 -115
c-214 -205 -392 -324 -536 -357 -295 -70 -587 103 -695 411 -34 94 -33 137 4
174 24 23 38 29 73 29 56 0 82 -25 104 -101 54 -185 187 -308 351 -325 113
-12 200 22 361 144 80 60 336 302 353 334 8 15 -4 46 -60 153 -138 264 -238
412 -349 516 -86 81 -164 120 -255 127 -60 4 -73 2 -132 -27 -78 -39 -139
-105 -191 -208 -53 -104 -83 -125 -149 -103 -78 26 -85 92 -23 213 50 97 181
236 266 280 107 58 228 66 357 26z m-150 -472 c56 -48 35 -157 -34 -172 -79
-17 -137 33 -127 110 6 53 43 85 96 85 26 0 48 -8 65 -23z"/>
<path d="M3789 2671 c-111 -36 -261 -140 -370 -258 -43 -46 -296 -394 -343
-471 -18 -30 239 -259 395 -352 71 -42 92 -50 134 -50 146 0 342 182 433 401
95 230 79 554 -34 688 -52 62 -115 74 -215 42z m48 -247 c45 -29 46 -115 3
-159 -15 -14 -34 -20 -66 -20 -38 0 -50 5 -70 28 -43 50 -26 138 31 163 33 15
67 11 102 -12z"/>
</g>
</svg>
