<?xml version="1.0" encoding="utf-8"?>
<!-- Generator: Adobe Illustrator 19.0.0, SVG Export Plug-In . SVG Version: 6.00 Build 0)  -->
<svg version="1.1" id="Layer_1" xmlns="http://www.w3.org/2000/svg" xmlns:xlink="http://www.w3.org/1999/xlink" x="0px" y="0px"
	 viewBox="0 0 512 512" style="enable-background:new 0 0 512 512;" xml:space="preserve">
<style type="text/css">
	.st0{fill:#336699;}
	.st1{fill:#FFFFFF;}
</style>
<ellipse class="st0" cx="255.7" cy="256.3" rx="256" ry="255.7"/>
<g>
	<g>
		<g>
			<path class="st1" d="M107.3,151.6c4.2-9.8,10.1-19.6,18.8-25.3c7.1-4.6,14.6-5.6,22.1-3.8c18.8,4.5,32.9,25.2,42.7,41.3
				c26.1,42.7,40,91.7,69.3,132.6c16.5,23.1,35.6,44.8,57.9,62.5c9.3,7.3,19.2,14.4,30.3,18.8c7.6,3,16.9,2.1,24.5-0.4
				c19.4-6.4,34.5-23.1,44-40.5c12.1-22.1,15.2-47.2,10.5-71.8c-3.3-17.2-12.5-35.3-30.8-39.9c-15.3-3.8-31.3,2.9-44,10.9
				c-13.4,8.5-25.2,19.6-34.8,32.2c-7.7,10.1-14.6,20.9-21.9,31.3c-10,14.2-19.4,26.8-30,39.7c-10.7,13-22,25.6-34.9,36.4
				c-4.2,3.5-9.6,7.5-16,11c-1.3,0.7-2.7,1.4-4,2c-2.3,1,2-0.8-0.3,0.1c-0.7,0.3-1.3,0.5-2,0.7c-1.3,0.4-2.6,0.8-3.9,1.1
				c-0.6,0.2-1.3,0.3-1.9,0.4c-1.8,0.3,2.4-0.2-0.5,0c-1.2,0.1-2.5,0.1-3.7,0c-0.7,0-2.8-0.3,0.2,0.1c-0.6-0.1-1.2-0.2-1.8-0.3
				c-1.2-0.3-2.3-0.7-3.5-1.1c2.9,1.1-1.2-0.8-2-1.3c-0.5-0.3-2.3-1.7-0.1,0c-0.5-0.4-1-0.9-1.6-1.3c-1.1-1-2.1-2-3-3.1
				c-0.3-0.3-1.8-2.3-0.4-0.4c-0.5-0.7-0.9-1.3-1.4-2c-1.1-1.7-2.1-3.5-3.1-5.4c-0.6-1.1-1.1-2.3-1.7-3.5c-0.4-0.8-0.6-1.5-1.3-3.4
				c-1.9-5.1-6.7-8.5-12.3-7c-4.9,1.3-8.9,7.2-7,12.3c5.5,14.8,13.7,28.7,29.1,34.6c12.4,4.8,26.5,0.1,37.5-6
				c13.7-7.6,25.6-18.9,36.3-30.2c12.4-13.1,23.7-27.2,34.5-41.6c9.4-12.5,18.4-25.3,27.3-38.1c3.2-4.6,6.4-9.3,9.7-13.9
				c1.2-1.6-1.4,1.8,0.2-0.2c0.5-0.6,1-1.2,1.5-1.8c1-1.3,2.1-2.5,3.2-3.7c2.6-2.8,5.3-5.5,8.1-8.1c6.2-5.8,9.8-8.6,17.1-13.1
				c3-1.9,6.2-3.6,9.5-5.1c2.6-1.2-1.9,0.7,0.8-0.3c0.8-0.3,1.6-0.6,2.4-0.9c1.8-0.6,3.6-1.1,5.5-1.5c0.8-0.2,1.5-0.3,2.3-0.4
				c-2.6,0.4-0.1,0,0.4,0c1.5-0.1,3-0.1,4.5,0c2.5,0.1-2.2-0.4,0.2,0c0.7,0.1,1.4,0.3,2.1,0.5c0.7,0.2,1.4,0.4,2.1,0.7
				c1.6,0.5-1.6-0.8,0.9,0.5c0.7,0.4,1.3,0.8,1.9,1.2c2.1,1.4-1.6-1.4,0.4,0.3c1.3,1.1,2.4,2.3,3.4,3.6c-1.4-1.7,0.4,0.6,0.5,0.9
				c0.5,0.8,1,1.6,1.5,2.4c1.4,2.5,1.7,3.2,2.4,5.3c7.5,20.6,5.7,44.2-3.7,63.8c-4.4,9.2-10.1,17-17.3,24
				c-5.7,5.5-12.5,9.8-19.2,11.6c-0.9,0.2-1.7,0.4-2.6,0.6c-2.8,0.6,2-0.2-0.8,0.1c-1.7,0.1-3.3,0.1-5-0.1c2.4,0.2-2-0.7-2.8-1
				c2.2,0.8-0.2-0.1-0.6-0.4c-1.6-0.8-3.2-1.7-4.7-2.5c-10.8-6-20.5-13.9-29.6-22.3c-20.4-18.7-38.5-40.6-52.9-64.2
				c-25.5-41.8-38.5-90.6-67.7-130.3c-13.3-18.2-30.5-34.8-53.9-37c-23.4-2.2-42.5,15.7-52.2,35.3c-0.7,1.4-1.3,2.9-2,4.4
				c-2.1,5-1.5,10.7,3.6,13.7C97.8,157.7,105.1,156.6,107.3,151.6L107.3,151.6z"/>
		</g>
	</g>
	<g>
		<g>
			<path class="st1" d="M339.2,155.5c4.7-14.6-7.1-28.7-18.7-35.9c-12.4-7.6-26.9-3.8-38,4c-11.5,8.1-21.1,18.9-30.4,29.3
				c-9.4,10.5-18.5,21.3-27.8,32c-17.5,20.1-35.6,40.7-57.7,55.8c-2.3,1.6-4.7,3.1-7.1,4.5c-0.8,0.5-1.7,0.9-2.5,1.4
				c-0.1,0.1-3,1.3-1.1,0.6c-1.8,0.7-3.7,1.3-5.6,1.8c-0.9,0.2-1.9,0.4-2.9,0.6c-1.2,0.2-1.3,0.2-0.3,0.1c-0.7,0.1-1.3,0.1-2,0.2
				c-8.1,0.7-15-0.8-21.5-4.2c-11.7-6.2-18.8-18.1-22.2-31.8c-3.1-12.5-22.4-7.2-19.3,5.3c5.4,21.8,19.1,39.8,40.4,47.7
				c18.7,6.9,38.1,1.8,54.1-8.9c22.8-15.2,41.6-35.9,59.5-56.4c9.3-10.7,18.4-21.5,27.8-32.1c8.8-10,17.8-20.6,28.5-28.6
				c4.5-3.4,10.7-7.4,16.4-4.8c4.3,1.9,12.7,8.6,10.9,14C315.9,162.5,335.2,167.7,339.2,155.5L339.2,155.5z"/>
		</g>
	</g>
	<g>
		<g>
			<path class="st1" d="M376.6,288.6c12.9,0,12.9-20,0-20C363.7,268.6,363.7,288.6,376.6,288.6L376.6,288.6z"/>
		</g>
	</g>
</g>
<g>
	<g>
		<path class="st1" d="M134,168.8c12.9,0,12.9-20,0-20C121.1,148.8,121.1,168.8,134,168.8L134,168.8z"/>
	</g>
</g>
</svg>
